<?xml version="1.0" standalone="no"?><!DOCTYPE svg PUBLIC "-//W3C//DTD SVG 1.1//EN"
        "http://www.w3.org/Graphics/SVG/1.1/DTD/svg11.dtd">
<svg xmlns:xlink="http://www.w3.org/1999/xlink" t="1566718842150" class="icon" viewBox="0 0 1024 1024" version="1.1"
     xmlns="http://www.w3.org/2000/svg" p-id="1244" width="16" height="16">
    <defs>
        <style type="text/css"></style>
    </defs>
    <path d="M512 512m-512 0a512 512 0 1 0 1024 0 512 512 0 1 0-1024 0Z" fill="#2674FD" p-id="1245"></path>
    <path d="M512 512m-425.57245 0a425.57245 425.57245 0 1 0 851.1449 0 425.57245 425.57245 0 1 0-851.1449 0Z"
          fill="#FFFFFF" p-id="1246"></path>
    <path d="M512 512m-214.271074 0a214.271074 214.271074 0 1 0 428.542148 0 214.271074 214.271074 0 1 0-428.542148 0Z"
          fill="#FFE41F" p-id="1247"></path>
    <path d="M635.968268 408.15377l-89.224127-8.722657a15.980441 15.980441 0 0 0-16.859365 11.479283l-1.784482 6.28564a22.372617 22.372617 0 0 0-2.237262 5.193643l-26.088069 91.754363a67.410825 67.410825 0 1 0 12.984108 61.498063c0.332926-1.185216 0.639218-2.370432 0.905558-3.555648h0.093219l33.106147-116.457461 48.527271-1.891019a48.84688 48.84688 0 0 0 37.767108-20.308477l8.735974-12.158452a8.336463 8.336463 0 0 0-5.92608-13.117278z"
          fill="#FFFFFF" p-id="1248"></path>
    <path d="M214.231123 503.383879c4.527792-160.563477 136.113403-289.339194 297.768877-289.339194s293.241085 128.775717 297.768877 289.339194h214.151221C1019.339038 224.61841 791.910734 0 512 0S4.647645 224.61841 0.079902 503.383879z"
          fill="#2674FD" p-id="1249"></path>
</svg>